# xmcd CD database file
#
# Track frame offsets:
#	150
#	4442
#	17845
#	29598
#	44637
#	55350
#	70632
#	89247
#	105690
#	110345
#	125744
#	139846
#	159715
#	174369
#	189799
#	204499
#	225414
#
# Disc length: 3094 seconds
#
# Revision: 1
# Processed by: cddbd v1.4PL0 Copyright (c) Steve Scherf et al.
# Submitted via: CDex 1.50
#
DISCID=f00c1411
DTITLE=Empedocles - Vierwerk
DYEAR=2003
DGENRE=Nederhop
TTITLE0=Intro
TTITLE1=Vierwerk alfa
TTITLE2=Vierwerk beta
TTITLE3=Het gordijn open en dicht
TTITLE4=De party is hier
TTITLE5=Glimp van je glimlach
TTITLE6=Shitzooi
TTITLE7=De lekkere trek
TTITLE8=Middelloet
TTITLE9=Bedelen of bedelen
TTITLE10=Cluedo
TTITLE11=1-2-stand
TTITLE12=Beatbox
TTITLE13=De rap van Murphy
TTITLE14=Driewieler
TTITLE15=Wegcijferd in letters
TTITLE16=Outro
EXTD=YEAR: 2003
EXTT0=
EXTT1=
EXTT2=
EXTT3=
EXTT4=
EXTT5=
EXTT6=
EXTT7=
EXTT8=
EXTT9=
EXTT10=
EXTT11=
EXTT12=
EXTT13=
EXTT14=
EXTT15=
EXTT16=
PLAYORDER=
